<?xml version="1.0" encoding="UTF-8"?>
<svg width="72px" height="54px" viewBox="0 0 72 54" version="1.1" xmlns="http://www.w3.org/2000/svg" xmlns:xlink="http://www.w3.org/1999/xlink">
    <!-- Generator: Sketch 49.3 (51167) - http://www.bohemiancoding.com/sketch -->
    <title>arrow-curved-top-left-white</title>
    <desc>Created with Sketch.</desc>
    <defs>
        <filter x="-6.9%" y="-9.3%" width="119.4%" height="125.9%" filterUnits="objectBoundingBox" id="filter-1">
            <feOffset dx="2" dy="2" in="SourceAlpha" result="shadowOffsetOuter1"></feOffset>
            <feGaussianBlur stdDeviation="2" in="shadowOffsetOuter1" result="shadowBlurOuter1"></feGaussianBlur>
            <feColorMatrix values="0 0 0 0 0   0 0 0 0 0   0 0 0 0 0  0 0 0 0.25 0" type="matrix" in="shadowBlurOuter1" result="shadowMatrixOuter1"></feColorMatrix>
            <feMerge>
                <feMergeNode in="shadowMatrixOuter1"></feMergeNode>
                <feMergeNode in="SourceGraphic"></feMergeNode>
            </feMerge>
        </filter>
    </defs>
    <g id="arrow-curved-top-left-white" stroke="none" stroke-width="1" fill="none" fill-rule="evenodd">
        <g filter="url(#filter-1)" transform="translate(36.000000, 27.000000) rotate(180.000000) translate(-36.000000, -27.000000) " fill="#FFFAFA" id="path-1">
            <path d="M0,0 C0,0 5.77946702,14.2767664 17.9731021,23.4462339 C30.1883264,32.6033084 49.9945376,28.8620004 49.9945376,28.8620004 L46.5414116,17.7794799 C46.4129776,17.3672259 46.6450802,16.9295449 47.0598648,16.8018788 C47.2777686,16.7348186 47.5142582,16.7651215 47.7079156,16.8849423 L71.6291723,31.6849535 C71.9977911,31.9130146 72.1106111,32.3948918 71.8811344,32.7612773 C71.8486013,32.8132252 71.8100303,32.8612035 71.7662231,32.9042121 L50.5108838,53.7744796 C50.2020007,54.0777744 49.7042089,54.0747738 49.3990523,53.7677595 C49.2189019,53.5865359 49.1389609,53.3293909 49.1848437,53.0787473 L51.0279376,43.0085065 C51.0272143,43.0088347 28.4405516,45.1580129 14.6031406,33.1221305 C0.747269506,21.0958906 7.86202241e-05,-0.000640752663 0,0 Z"></path>
        </g>
    </g>
</svg>